<?xml version="1.0" encoding="UTF-8" standalone="no"?>
<!-- Created with Keyshape -->
<svg xmlns="http://www.w3.org/2000/svg" id="Capa_1" width="110" height="110" viewBox="0 0 110 110" style="white-space: preserve-spaces;">
    <style>
@keyframes a0_t { 0% { transform: translate(55.9px,47.9px); } 100% { transform: translate(54.9px,31.9px); } }
@keyframes a1_t { 0% { transform: translate(0px,0px); } 100% { transform: translate(0px,-18px); } }
@keyframes a2_t { 0% { transform: translate(0px,0px); } 100% { transform: translate(-0.850261px,-16px); } }
    </style>
    <ellipse class="st0" rx="25.5" ry="25.5" fill="#FFFFFF" transform="translate(55.9,47.9)" style="animation: 2s linear infinite both a0_t;"/>
    <g id="Grids" class="st1" display="none" transform="translate(55,55) translate(-55,-55)">
        <g id="Grid_14_" class="st2" display="inline" transform="translate(55,55) translate(-55,-55)">
            <g transform="translate(55,55) translate(-55,-55)">
                <path class="st3" d="M74.9,27.1L74.9,82.9L35.1,82.9L35.1,27.1L74.9,27.1M75,27L35,27L35,83L75,83L75,27L75,27Z" fill="#FF0000" transform="translate(55,55) translate(-55,-55)"/>
            </g>
            <g transform="translate(55,55) translate(-55,-55)">
                <path class="st4" d="M82.9,35.1L82.9,74.9L27.1,74.9L27.1,35.1L82.9,35.1M83,35L27,35L27,75L83,75L83,35L83,35Z" fill="#4600F0" transform="translate(55,55) translate(-55,-55)"/>
            </g>
            <g transform="translate(55,55) translate(-55,-55)">
                <path class="st5" d="M78.9,31.1L78.9,78.9L31.1,78.9L31.1,31.1L78.9,31.1M79,31L31,31L31,79L79,79L79,31L79,31Z" fill="#F0C800" transform="translate(55,55) translate(-55,-55)"/>
            </g>
            <g transform="translate(55,55) translate(-55,-55)">
                <path class="st6" d="M55,29.1C69.3,29.1,80.9,40.7,80.9,55C80.9,69.3,69.3,80.9,55,80.9C40.7,80.9,29.1,69.3,29.1,55C29.1,40.7,40.7,29.1,55,29.1M55,29C40.6,29,29,40.6,29,55C29,69.4,40.6,81,55,81C69.4,81,81,69.4,81,55C81,40.6,69.4,29,55,29L55,29Z" fill="#00F096" transform="translate(55,55) translate(-55,-55)"/>
            </g>
        </g>
    </g>
    <g id="Captions"/>
    <g id="Icons" transform="translate(55.8503,60.6375) translate(-55.8503,-60.6375)">
        <g transform="translate(56,48.716) translate(-56,-48.716)">
            <path class="st7" d="M58.7,37L60.6,40.8C61.1,41.7,62,42.4,63,42.5L67.2,43.1C69.8,43.5,70.9,46.7,69,48.5L66,51.4C65.2,52.1,64.9,53.2,65.1,54.2L65.8,58.4C66.2,61,63.5,63,61.2,61.8L57.5,59.8C56.6,59.3,55.5,59.3,54.5,59.8L50.8,61.8C48.5,63,45.7,61,46.2,58.4L46.9,54.2C47.1,53.2,46.7,52.1,46,51.4L43,48.5C41.1,46.7,42.2,43.4,44.8,43.1L49,42.5C50,42.3,50.9,41.7,51.4,40.8L53,37C54.2,34.7,57.6,34.7,58.7,37Z" fill="#FF0068" transform="translate(56,48.716) translate(-56,-48.716)" style="animation: 2s linear infinite both a1_t;"/>
        </g>
        <path class="st7" d="M55.9,16C38.3,16,24,30.3,24,47.9C24,68.1,33.2,87.2,48.9,99.7L54.8,104.9C55.4,105.4,56.3,105.4,56.9,104.9L62.8,99.7C78.6,87.1,87.7,68,87.7,47.9C87.8,30.3,73.5,16,55.9,16ZM55.9,73.4C41.8,73.4,30.4,62,30.4,47.9C30.4,33.8,41.8,22.4,55.9,22.4C70,22.4,81.4,33.8,81.4,47.9C81.4,62,70,73.4,55.9,73.4Z" fill="#FF0068" transform="translate(55.8503,60.6375) translate(-55.8503,-60.6375)" style="animation: 2s linear infinite both a2_t;"/>
    </g>
</svg>
